<svg width="1439" height="678" viewBox="0 0 1439 678" fill="none" xmlns="http://www.w3.org/2000/svg">
<path d="M0 280.5L1440 0V677.5H0V280.5Z" fill="#3394EE"/>
<g clip-path="url(#clip0)" filter="url(#filter0_d)">
<path d="M1254.69 251.834C1247.72 271.202 1244.71 291.773 1245.85 312.325L895.34 261.147L1094.27 495.983L1266.94 381.571C1277.5 399.391 1291.65 415.019 1308.54 427.338L1082.79 576.968L870.099 325.914L818.06 682.326L1301.99 752.983L1346.59 447.505C1365.96 454.474 1386.53 457.477 1407.08 456.337L1358.06 792.06C1356.89 800.082 1352.58 807.31 1346.08 812.154C1339.58 816.998 1331.42 819.061 1323.4 817.89L778.983 738.401C770.961 737.229 763.733 732.92 758.889 726.419C754.046 719.919 751.982 711.761 753.153 703.739L823.81 219.813C824.982 211.792 829.291 204.564 835.792 199.72C842.292 194.876 850.45 192.813 858.472 193.984L1254.69 251.834ZM1385.22 394.455C1373.31 392.715 1361.85 388.645 1351.51 382.478C1341.17 376.311 1332.14 368.166 1324.94 358.511C1317.75 348.855 1312.53 337.876 1309.57 326.202C1306.62 314.527 1306 302.386 1307.74 290.47C1309.48 278.555 1313.55 267.098 1319.71 256.755C1325.88 246.413 1334.02 237.386 1343.68 230.19C1353.34 222.995 1364.31 217.772 1375.99 214.819C1387.66 211.867 1399.8 211.243 1411.72 212.982C1435.79 216.496 1457.47 229.425 1472 248.926C1486.53 268.427 1492.72 292.902 1489.21 316.967C1485.69 341.031 1472.77 362.715 1453.26 377.246C1433.76 391.778 1409.29 397.968 1385.22 394.455Z" fill="#47A5FC"/>
</g>
<defs>
<filter id="filter0_d" x="639.998" y="79" width="901.874" height="901.874" filterUnits="userSpaceOnUse" color-interpolation-filters="sRGB">
<feFlood flood-opacity="0" result="BackgroundImageFix"/>
<feColorMatrix in="SourceAlpha" type="matrix" values="0 0 0 0 0 0 0 0 0 0 0 0 0 0 0 0 0 0 127 0"/>
<feOffset dy="24"/>
<feGaussianBlur stdDeviation="17.5"/>
<feColorMatrix type="matrix" values="0 0 0 0 0.145833 0 0 0 0 0.21525 0 0 0 0 0.35 0 0 0 0.17 0"/>
<feBlend mode="normal" in2="BackgroundImageFix" result="effect1_dropShadow"/>
<feBlend mode="normal" in="SourceGraphic" in2="effect1_dropShadow" result="shape"/>
</filter>
<clipPath id="clip0">
<rect width="733.585" height="733.585" fill="white" transform="translate(780.984 90) rotate(8.30693)"/>
</clipPath>
</defs>
</svg>
