<svg width="470" height="380" viewBox="0 0 470 380" fill="none" xmlns="http://www.w3.org/2000/svg">
<rect x="98.7891" y="58.8228" width="255.85" height="230.371" rx="12" transform="rotate(-6.46839 98.7891 58.8228)" fill="#3394EE"/>
<g filter="url(#filter0_d)">
<path d="M176.896 95.0664H394.039C397.239 95.0664 400.307 96.3353 402.57 98.594C404.832 100.853 406.103 103.916 406.103 107.11V299.813C406.103 303.008 404.832 306.071 402.57 308.33C400.307 310.589 397.239 311.857 394.039 311.857H176.896C173.696 311.857 170.628 310.589 168.365 308.33C166.103 306.071 164.832 303.008 164.832 299.813V107.11C164.832 103.916 166.103 100.853 168.365 98.594C170.628 96.3353 173.696 95.0664 176.896 95.0664ZM188.959 119.154V287.77H381.976V119.154H188.959ZM225.15 215.506H249.277V263.682H225.15V215.506ZM273.404 143.242H297.531V263.682H273.404V143.242ZM321.658 179.374H345.785V263.682H321.658V179.374Z" fill="#47A5FC"/>
</g>
<defs>
<filter id="filter0_d" x="105.703" y="47.9346" width="359.525" height="359.055" filterUnits="userSpaceOnUse" color-interpolation-filters="sRGB">
<feFlood flood-opacity="0" result="BackgroundImageFix"/>
<feColorMatrix in="SourceAlpha" type="matrix" values="0 0 0 0 0 0 0 0 0 0 0 0 0 0 0 0 0 0 127 0"/>
<feOffset dy="24"/>
<feGaussianBlur stdDeviation="17.5"/>
<feColorMatrix type="matrix" values="0 0 0 0 0.145833 0 0 0 0 0.21525 0 0 0 0 0.35 0 0 0 0.17 0"/>
<feBlend mode="normal" in2="BackgroundImageFix" result="effect1_dropShadow"/>
<feBlend mode="normal" in="SourceGraphic" in2="effect1_dropShadow" result="shape"/>
</filter>
</defs>
</svg>
