<svg width="79" height="42" viewBox="0 0 79 42" fill="none" xmlns="http://www.w3.org/2000/svg">
<path d="M51.8736 0.354492L61.1531 20.7305C54.7677 26.0257 51.6573 31.1998 50.9003 33.1249L47.3313 24.5592C46.0983 23.7805 43.4636 21.0809 42.7888 16.5126C42.1139 11.9442 48.5641 3.83702 51.8736 0.354492Z" fill="#066AB5"/>
<path fill-rule="evenodd" clip-rule="evenodd" d="M0.933594 6.06498H7.09832C11.1481 6.06498 14.4311 9.34797 14.4311 13.3978C14.4311 17.4475 11.1481 20.7305 7.09832 20.7305H0.933594V6.06498ZM3.91862 9.05V17.7455H7.09832C9.49952 17.7455 11.4461 15.799 11.4461 13.3978C11.4461 10.9966 9.49952 9.05 7.09832 9.05H3.91862Z" fill="#066AB5"/>
<path d="M27.4095 6.00008H17.4161V20.7305H27.7988V17.7455H20.4011V14.8903H26.8903V11.9052H20.4011V8.98511H27.4095V6.00008Z" fill="#066AB5"/>
<path d="M31.4328 6.00008H41.4261V9.05H34.4178V11.9052H40.907V14.8903H34.4178V20.7305H31.4328V6.00008Z" fill="#066AB5"/>
<path d="M71.9275 20.6656H69.4254L65.5659 9.82611V20.7305H62.5809V6.00008H67.4574L70.9152 15.9635L74.3949 6.00008H78.9985V20.7305H76.0135V9.14106L71.9275 20.6656Z" fill="#066AB5"/>
<path d="M49.4064 37.0185C48.2718 33.709 43.8906 20.2764 43.8906 20.2764C45.3442 22.4048 47.6976 23.5859 48.6926 23.9103L54.2084 41.5609C54.2084 41.5609 50.5411 40.3279 49.4064 37.0185Z" fill="#83A1D3"/>
<path d="M53.7847 17.6156H47.7857L48.9537 14.6306H52.4406L48.5804 6H51.8504L56.1029 15.5079L58.5156 20.7813H55.233L53.7847 17.6156Z" fill="white"/>
</svg>
