<svg width="135" height="26" viewBox="0 0 135 26" fill="none" xmlns="http://www.w3.org/2000/svg">
<g clip-path="url(#clip0)">
<path d="M38.72 15.4613V16.5713H33.86V9.97129H35.24V15.4613H38.72ZM44.9559 15.4613V16.5713H39.8659V9.97129H44.8159V11.0813H41.2459V12.7213H44.0559V13.7813H41.2459V15.4613H44.9559ZM51.864 16.5713H50.284L47.974 12.6913L47.404 11.5813H47.394L47.434 12.7513V16.5713H46.194V9.97129H47.764L50.074 13.8413L50.644 14.9613H50.664L50.624 13.7913V9.97129H51.864V16.5713ZM54.9666 16.5713H53.5866V9.97129H54.9666V16.5713ZM62.3523 16.5713H60.7723L58.4623 12.6913L57.8923 11.5813H57.8823L57.9223 12.7513V16.5713H56.6823V9.97129H58.2523L60.5623 13.8413L61.1323 14.9613H61.1523L61.1123 13.7913V9.97129H62.3523V16.5713ZM69.7948 13.0813V16.5713H68.7848L68.7548 15.7813C68.3548 16.3746 67.7048 16.6713 66.8048 16.6713C66.1982 16.6713 65.6648 16.538 65.2048 16.2713C64.7448 16.0046 64.3848 15.618 64.1248 15.1113C63.8715 14.598 63.7448 13.988 63.7448 13.2813C63.7448 12.5813 63.8748 11.9746 64.1348 11.4613C64.4015 10.948 64.7748 10.5546 65.2548 10.2813C65.7415 10.008 66.3082 9.87129 66.9548 9.87129C67.6682 9.87129 68.2482 10.0013 68.6948 10.2613C69.1482 10.5213 69.5048 10.9313 69.7648 11.4913L68.4948 12.0413C68.3948 11.7013 68.2115 11.4446 67.9448 11.2713C67.6848 11.0913 67.3682 11.0013 66.9948 11.0013C66.4215 11.0013 65.9748 11.198 65.6548 11.5913C65.3348 11.9846 65.1748 12.5446 65.1748 13.2713C65.1748 14.0246 65.3315 14.5946 65.6448 14.9813C65.9582 15.368 66.4182 15.5613 67.0248 15.5613C67.4915 15.5613 67.8715 15.4513 68.1648 15.2313C68.4582 15.0046 68.6048 14.678 68.6048 14.2513V14.1013H66.6748V13.0813H69.7948ZM77.8151 14.9613H75.2751L74.7351 16.5713H73.3251L75.7351 9.97129H77.3851L79.7951 16.5713H78.3651L77.8151 14.9613ZM77.4751 13.9413L76.8551 12.0813L76.5551 11.0813H76.5351L76.2551 12.0613L75.6151 13.9413H77.4751ZM84.5241 14.9613H81.9841L81.4441 16.5713H80.0341L82.4441 9.97129H84.0941L86.5041 16.5713H85.0741L84.5241 14.9613ZM84.1841 13.9413L83.5641 12.0813L83.2641 11.0813H83.2441L82.9641 12.0613L82.3241 13.9413H84.1841ZM93.153 16.5713H91.573L89.263 12.6913L88.693 11.5813H88.683L88.723 12.7513V16.5713H87.483V9.97129H89.053L91.363 13.8413L91.933 14.9613H91.953L91.913 13.7913V9.97129H93.153V16.5713ZM98.1756 16.5713H96.5656L94.1556 9.97129H95.6156L97.0056 14.1713L97.3856 15.4713L97.7556 14.1813L99.1556 9.97129H100.576L98.1756 16.5713ZM104.175 14.0413H102.935V16.5713H101.575V9.97129H104.485C105.238 9.97129 105.825 10.1513 106.245 10.5113C106.672 10.8646 106.885 11.3646 106.885 12.0113C106.885 12.4846 106.768 12.8813 106.535 13.2013C106.302 13.5213 105.968 13.7513 105.535 13.8913L107.275 16.5713H105.725L104.175 14.0413ZM102.935 12.9913H104.305C104.705 12.9913 104.998 12.9146 105.185 12.7613C105.378 12.6013 105.475 12.358 105.475 12.0313C105.475 11.7046 105.378 11.4646 105.185 11.3113C104.998 11.1513 104.705 11.0713 104.305 11.0713H102.935V12.9913ZM112.122 14.9613H109.582L109.042 16.5713H107.632L110.042 9.97129H111.692L114.102 16.5713H112.672L112.122 14.9613ZM111.782 13.9413L111.162 12.0813L110.862 11.0813H110.842L110.562 12.0613L109.922 13.9413H111.782ZM120.557 13.0813V16.5713H119.547L119.517 15.7813C119.117 16.3746 118.467 16.6713 117.567 16.6713C116.96 16.6713 116.427 16.538 115.967 16.2713C115.507 16.0046 115.147 15.618 114.887 15.1113C114.633 14.598 114.507 13.988 114.507 13.2813C114.507 12.5813 114.637 11.9746 114.897 11.4613C115.163 10.948 115.537 10.5546 116.017 10.2813C116.503 10.008 117.07 9.87129 117.717 9.87129C118.43 9.87129 119.01 10.0013 119.457 10.2613C119.91 10.5213 120.267 10.9313 120.527 11.4913L119.257 12.0413C119.157 11.7013 118.973 11.4446 118.707 11.2713C118.447 11.0913 118.13 11.0013 117.757 11.0013C117.183 11.0013 116.737 11.198 116.417 11.5913C116.097 11.9846 115.937 12.5446 115.937 13.2713C115.937 14.0246 116.093 14.5946 116.407 14.9813C116.72 15.368 117.18 15.5613 117.787 15.5613C118.253 15.5613 118.633 15.4513 118.927 15.2313C119.22 15.0046 119.367 14.678 119.367 14.2513V14.1013H117.437V13.0813H120.557ZM127.153 15.4613V16.5713H122.063V9.97129H127.013V11.0813H123.443V12.7213H126.253V13.7813H123.443V15.4613H127.153ZM134.061 16.5713H132.481L130.171 12.6913L129.601 11.5813H129.591L129.631 12.7513V16.5713H128.391V9.97129H129.961L132.271 13.8413L132.841 14.9613H132.861L132.821 13.7913V9.97129H134.061V16.5713Z" fill="white"/>
<path opacity="0.5" fill-rule="evenodd" clip-rule="evenodd" d="M10.949 1.53061C12.0834 0.94957 13.474 1.39817 14.0551 2.53258L23.7478 21.4565C24.3289 22.591 23.8803 23.9816 22.7459 24.5627C21.6115 25.1437 20.2208 24.6951 19.6398 23.5607L9.947 4.63673C9.36596 3.50231 9.81455 2.11166 10.949 1.53061ZM9.3578 8.92111C10.4892 9.50809 10.9305 10.9011 10.3435 12.0324L4.35678 23.5714C3.76981 24.7028 2.37682 25.1441 1.24547 24.5571C0.114108 23.9702 -0.327202 22.5772 0.259773 21.4458L6.24648 9.90681C6.83346 8.77545 8.22644 8.33414 9.3578 8.92111Z" fill="white"/>
<path fill-rule="evenodd" clip-rule="evenodd" d="M13.0397 1.2928C14.1782 1.86584 14.6365 3.2533 14.0635 4.39178L9.01008 14.4316H18.559C19.8335 14.4316 20.8668 15.4649 20.8668 16.7394C20.8668 18.014 19.8335 19.0472 18.559 19.0472H5.26483C4.46391 19.0472 3.72025 18.632 3.30009 17.9501C2.87992 17.2682 2.84334 16.4173 3.20343 15.7019L9.9407 2.31662C10.5137 1.17814 11.9012 0.71976 13.0397 1.2928Z" fill="white"/>
</g>
<defs>
<clipPath id="clip0">
<rect width="135" height="26" fill="white"/>
</clipPath>
</defs>
</svg>
