<svg width="190" height="37" viewBox="0 0 190 37" fill="none" xmlns="http://www.w3.org/2000/svg">
<path d="M54.4937 21.501V23.0632H47.6537V13.7743H49.596V21.501H54.4937ZM63.2701 21.501V23.0632H56.1064V13.7743H63.0731V15.3366H58.0486V17.6447H62.0035V19.1366H58.0486V21.501H63.2701ZM72.9927 23.0632H70.769L67.5179 17.6025L66.7156 16.0403H66.7016L66.7579 17.6869V23.0632H65.0127V13.7743H67.2223L70.4734 19.221L71.2756 20.7973H71.3038L71.2475 19.1506V13.7743H72.9927V23.0632ZM77.3593 23.0632H75.417V13.7743H77.3593V23.0632ZM87.754 23.0632H85.5303L82.2791 17.6025L81.4769 16.0403H81.4628L81.5191 17.6869V23.0632H79.774V13.7743H81.9836L85.2347 19.221L86.0369 20.7973H86.0651L86.0088 19.1506V13.7743H87.754V23.0632ZM98.2287 18.1514V23.0632H96.8072L96.765 21.9514C96.202 22.7864 95.2872 23.204 94.0206 23.204C93.1667 23.204 92.4161 23.0163 91.7687 22.641C91.1213 22.2657 90.6146 21.7215 90.2487 21.0084C89.8922 20.2859 89.7139 19.4274 89.7139 18.4329C89.7139 17.4477 89.8968 16.5938 90.2628 15.8714C90.6381 15.1489 91.1635 14.5953 91.8391 14.2106C92.524 13.8259 93.3215 13.6336 94.2317 13.6336C95.2356 13.6336 96.0519 13.8166 96.6806 14.1825C97.3186 14.5484 97.8206 15.1255 98.1865 15.9136L96.3991 16.6877C96.2583 16.2092 96.0003 15.8479 95.625 15.604C95.2591 15.3506 94.8134 15.224 94.288 15.224C93.481 15.224 92.8524 15.5008 92.402 16.0543C91.9517 16.6079 91.7265 17.3961 91.7265 18.4188C91.7265 19.479 91.947 20.2813 92.388 20.8255C92.8289 21.3697 93.4764 21.6418 94.3302 21.6418C94.987 21.6418 95.5218 21.4869 95.9346 21.1773C96.3475 20.8583 96.5539 20.3985 96.5539 19.798V19.5869H93.8376V18.1514H98.2287ZM109.516 20.7973H105.942L105.182 23.0632H103.197L106.589 13.7743H108.911L112.303 23.0632H110.291L109.516 20.7973ZM109.038 19.3618L108.165 16.744L107.743 15.3366H107.715L107.321 16.7158L106.42 19.3618H109.038ZM118.959 20.7973H115.384L114.624 23.0632H112.639L116.031 13.7743H118.354L121.745 23.0632H119.733L118.959 20.7973ZM118.48 19.3618L117.608 16.744L117.185 15.3366H117.157L116.763 16.7158L115.862 19.3618H118.48ZM131.103 23.0632H128.88L125.628 17.6025L124.826 16.0403H124.812L124.868 17.6869V23.0632H123.123V13.7743H125.333L128.584 19.221L129.386 20.7973H129.414L129.358 19.1506V13.7743H131.103V23.0632ZM138.172 23.0632H135.906L132.514 13.7743H134.569L136.525 19.6855L137.06 21.5151L137.581 19.6995L139.551 13.7743H141.55L138.172 23.0632ZM146.615 19.5025H144.87V23.0632H142.956V13.7743H147.052C148.112 13.7743 148.938 14.0277 149.529 14.5343C150.129 15.0316 150.429 15.7353 150.429 16.6455C150.429 17.3116 150.265 17.8699 149.937 18.3203C149.608 18.7706 149.139 19.0943 148.529 19.2914L150.978 23.0632H148.797L146.615 19.5025ZM144.87 18.0247H146.798C147.361 18.0247 147.774 17.9168 148.037 17.701C148.309 17.4758 148.445 17.1334 148.445 16.6736C148.445 16.2138 148.309 15.8761 148.037 15.6603C147.774 15.4351 147.361 15.3225 146.798 15.3225H144.87V18.0247ZM157.8 20.7973H154.225L153.465 23.0632H151.481L154.872 13.7743H157.195L160.587 23.0632H158.574L157.8 20.7973ZM157.321 19.3618L156.449 16.744L156.027 15.3366H155.998L155.604 16.7158L154.704 19.3618H157.321ZM169.671 18.1514V23.0632H168.25L168.207 21.9514C167.644 22.7864 166.73 23.204 165.463 23.204C164.609 23.204 163.859 23.0163 163.211 22.641C162.564 22.2657 162.057 21.7215 161.691 21.0084C161.335 20.2859 161.156 19.4274 161.156 18.4329C161.156 17.4477 161.339 16.5938 161.705 15.8714C162.081 15.1489 162.606 14.5953 163.281 14.2106C163.966 13.8259 164.764 13.6336 165.674 13.6336C166.678 13.6336 167.494 13.8166 168.123 14.1825C168.761 14.5484 169.263 15.1255 169.629 15.9136L167.841 16.6877C167.701 16.2092 167.443 15.8479 167.067 15.604C166.701 15.3506 166.256 15.224 165.73 15.224C164.923 15.224 164.295 15.5008 163.844 16.0543C163.394 16.6079 163.169 17.3961 163.169 18.4188C163.169 19.479 163.389 20.2813 163.83 20.8255C164.271 21.3697 164.919 21.6418 165.773 21.6418C166.429 21.6418 166.964 21.4869 167.377 21.1773C167.79 20.8583 167.996 20.3985 167.996 19.798V19.5869H165.28V18.1514H169.671ZM178.955 21.501V23.0632H171.791V13.7743H178.758V15.3366H173.734V17.6447H177.689V19.1366H173.734V21.501H178.955ZM188.678 23.0632H186.454L183.203 17.6025L182.401 16.0403H182.387L182.443 17.6869V23.0632H180.698V13.7743H182.907L186.158 19.221L186.961 20.7973H186.989L186.933 19.1506V13.7743H188.678V23.0632Z" fill="#253759"/>
<path opacity="0.5" fill-rule="evenodd" clip-rule="evenodd" d="M13.1702 12.556C14.7625 13.3821 15.3836 15.3426 14.5575 16.9349L6.13177 33.175C5.30566 34.7673 3.34516 35.3884 1.75288 34.5623C0.160596 33.7362 -0.460506 31.7757 0.365607 30.1834L8.79134 13.9433C9.61746 12.351 11.578 11.7299 13.1702 12.556Z" fill="url(#paint0_linear)"/>
<path opacity="0.5" d="M15.8422 2.15446C17.4388 1.33669 19.396 1.96805 20.2138 3.56464L33.8555 30.1984C34.6732 31.795 34.0419 33.7522 32.4453 34.5699C30.8487 35.3877 28.8915 34.7563 28.0737 33.1598L14.432 6.52602C13.6143 4.92944 14.2456 2.97222 15.8422 2.15446Z" fill="url(#paint1_linear)"/>
<path fill-rule="evenodd" clip-rule="evenodd" d="M18.3545 1.81941C19.9568 2.62591 20.6019 4.57863 19.7954 6.18094L12.6832 20.3111H26.1224C27.9162 20.3111 29.3704 21.7653 29.3704 23.5591C29.3704 25.353 27.9162 26.8071 26.1224 26.8071H7.41208C6.28485 26.8071 5.23822 26.2227 4.64688 25.263C4.05554 24.3034 4.00405 23.1057 4.51085 22.0988L13.9929 3.26035C14.7994 1.65804 16.7522 1.01291 18.3545 1.81941Z" fill="#3394EE"/>
<defs>
<linearGradient id="paint0_linear" x1="9.38604" y1="25.9286" x2="11.9132" y2="16.3579" gradientUnits="userSpaceOnUse">
<stop stop-color="#3394EE"/>
<stop offset="1" stop-color="#3394EE" stop-opacity="0"/>
</linearGradient>
<linearGradient id="paint1_linear" x1="26.7409" y1="21.8147" x2="19.0001" y2="9.14807" gradientUnits="userSpaceOnUse">
<stop stop-color="#3394EE"/>
<stop offset="1" stop-color="#3394EE" stop-opacity="0"/>
</linearGradient>
</defs>
</svg>
