<svg width="470" height="380" viewBox="0 0 470 380" fill="none" xmlns="http://www.w3.org/2000/svg">
<circle cx="248" cy="198" r="138" fill="#3394EE"/>
<g filter="url(#filter0_d)">
<path d="M110.268 91.62C131.337 74.7666 157.539 65.6028 184.537 65.6457C212.629 65.6457 238.447 75.3597 258.806 91.62L268.683 81.7589C273.839 76.6113 282.189 76.6114 287.345 81.7589C292.513 86.9183 292.513 95.2923 287.345 100.452L277.498 110.282C291.481 127.759 300.237 148.822 302.759 171.047C305.281 193.273 301.466 215.757 291.753 235.914C282.04 256.07 266.825 273.079 247.857 284.983C228.89 296.887 206.941 303.203 184.537 303.203C162.133 303.203 140.184 296.887 121.217 284.983C102.249 273.079 87.0333 256.07 77.3206 235.914C67.6079 215.757 63.793 193.273 66.3148 171.047C68.8366 148.822 77.5926 127.759 91.5752 110.282L81.7333 100.463C76.5633 95.3053 76.5619 86.9303 81.7301 81.7705C86.8851 76.6238 95.2342 76.6238 100.389 81.7705L110.268 91.6332V91.62ZM184.537 276.819C196.689 276.819 208.722 274.429 219.95 269.786C231.177 265.143 241.378 258.338 249.971 249.759C258.564 241.18 265.381 230.995 270.031 219.786C274.682 208.577 277.075 196.563 277.075 184.431C277.075 172.298 274.682 160.284 270.031 149.075C265.381 137.866 258.564 127.681 249.971 119.102C241.378 110.523 231.177 103.718 219.95 99.075C208.722 94.4321 196.689 92.0424 184.537 92.0424C159.994 92.0424 136.457 101.776 119.102 119.102C101.748 136.428 91.9982 159.928 91.9982 184.431C91.9982 208.934 101.748 232.433 119.102 249.759C136.457 267.085 159.994 276.819 184.537 276.819ZM197.757 171.232H225.219C230.199 171.232 233.011 176.949 229.972 180.894L176.693 250.043C174.946 252.312 171.317 251.076 171.317 248.212V197.629H143.849C138.87 197.629 136.057 191.914 139.095 187.969L192.379 118.758C194.127 116.489 197.757 117.724 197.757 120.588V171.232ZM131.658 39.2491C131.658 31.9599 137.567 26.0508 144.856 26.0508H224.218C231.507 26.0508 237.416 31.9599 237.416 39.2491C237.416 46.5383 231.507 52.4474 224.218 52.4474H144.856C137.567 52.4474 131.658 46.5383 131.658 39.2491Z" fill="#47A5FC"/>
</g>
<defs>
<filter id="filter0_d" x="-9.10156" y="1.85254" width="387.275" height="386.76" filterUnits="userSpaceOnUse" color-interpolation-filters="sRGB">
<feFlood flood-opacity="0" result="BackgroundImageFix"/>
<feColorMatrix in="SourceAlpha" type="matrix" values="0 0 0 0 0 0 0 0 0 0 0 0 0 0 0 0 0 0 127 0"/>
<feOffset dy="24"/>
<feGaussianBlur stdDeviation="17.5"/>
<feColorMatrix type="matrix" values="0 0 0 0 0.145833 0 0 0 0 0.21525 0 0 0 0 0.35 0 0 0 0.17 0"/>
<feBlend mode="normal" in2="BackgroundImageFix" result="effect1_dropShadow"/>
<feBlend mode="normal" in="SourceGraphic" in2="effect1_dropShadow" result="shape"/>
</filter>
</defs>
</svg>
