<svg width="106" height="12" viewBox="0 0 106 12" fill="none" xmlns="http://www.w3.org/2000/svg">
<g clip-path="url(#clip0)">
<path d="M38.8963 5.71131L43.2382 11.8002H40.1194L36.1444 6.11131V11.8002H33.5352V0.200195H36.1444V5.37797L39.9971 0.200195H43.0955L38.8963 5.71131Z" fill="black"/>
<path d="M47.0272 9.42242H52.103V11.8002H44.418V0.200195H51.8584V2.57797H47.0272V4.71131H51.3895V7.02242H47.0272V9.42242Z" fill="black"/>
<path d="M53.1641 0.200195V2.57797H56.4256V11.8002H59.0145V2.57797H62.2352V0.200195H53.1641Z" fill="black"/>
<path d="M53.1641 0.200195V2.57797H56.4256V11.8002H59.0145V2.57797H62.2352V0.200195H53.1641Z" fill="black"/>
<path d="M6.23684 7.33353L9.43722 11.8002H6.44068L2.62876 6.20019V11.8002H0.0195312V0.200195H4.80992C7.09299 0.200195 8.68299 1.73353 8.68299 3.95575C8.66261 5.53353 7.72491 6.95575 6.23684 7.33353ZM6.07376 4.0002C6.07376 3.13353 5.44184 2.53353 4.54491 2.53353H2.62876V5.46686H4.54491C5.46222 5.46686 6.07376 4.86686 6.07376 4.0002Z" fill="black"/>
<path d="M15.7353 2.51135C17.6514 2.51135 19.1599 4.11135 19.1599 6.31135C19.1599 8.04468 18.3649 9.08913 17.3049 9.86691L18.7726 12.0002C20.5868 10.6447 21.7283 8.77802 21.7283 6.31135C21.7283 2.66691 19.0783 0.0224609 15.7353 0.0224609C12.3922 0.0224609 9.74219 2.68913 9.74219 6.31135C9.74219 8.77802 10.8837 10.6447 12.698 12.0002L14.1656 9.86691C13.1056 9.08913 12.3106 8.04468 12.3106 6.31135C12.331 4.11135 13.8191 2.51135 15.7353 2.51135Z" fill="#C8102E"/>
<path d="M30.904 8.6L32.2698 10.6222C31.2709 11.5778 30.0478 12 28.519 12C25.5224 12 22.9336 9.62222 22.9336 5.97778C22.9336 2.42222 25.5021 0 28.519 0C29.9663 0 31.2709 0.4 32.2494 1.26667L30.8224 3.37778C30.2517 2.88889 29.5586 2.51111 28.519 2.51111C26.8678 2.51111 25.5428 3.93333 25.5428 6.04444C25.5428 8.11111 26.8678 9.51111 28.5598 9.51111C29.5994 9.48889 30.3128 9.08889 30.904 8.6Z" fill="black"/>
<path d="M72.5676 10.2891V11.8002H66.4727V0.200195H68.0219V10.2891H72.5676Z" fill="black"/>
<path d="M73.1816 7.68928C73.1816 5.20039 74.8532 3.40039 77.1566 3.40039C79.5009 3.40039 81.1316 5.20039 81.1316 7.68928C81.1316 10.1782 79.5212 11.9782 77.1566 11.9782C74.8328 11.9559 73.1816 10.1782 73.1816 7.68928ZM79.6639 7.68928C79.6639 6.00039 78.6243 4.86706 77.1362 4.86706C75.6686 4.86706 74.6289 6.00039 74.6289 7.68928C74.6289 9.37817 75.6889 10.5115 77.1362 10.5115C78.6447 10.5115 79.6639 9.35595 79.6639 7.68928Z" fill="black"/>
<path d="M90.0582 3.55595V11.8004H88.6312V10.3559C88.0401 11.4893 87.0412 11.9559 85.8793 11.9559C83.7593 11.9559 82.2305 10.1782 82.2305 7.68928C82.2305 5.17817 83.7593 3.40039 85.8793 3.40039C87.0412 3.40039 88.0808 3.93372 88.6312 4.97817V3.55595H90.0582ZM88.7128 7.68928C88.7128 6.04483 87.612 4.84483 86.1647 4.84483C84.7174 4.84483 83.7185 5.97817 83.7185 7.7115C83.7185 9.40039 84.697 10.5337 86.1443 10.5337C87.612 10.5337 88.7128 9.3115 88.7128 7.68928Z" fill="black"/>
<path d="M98.7624 6.82261V11.8004H97.3355V7.17817C97.3355 5.7115 96.6832 4.80039 95.4397 4.80039C94.2167 4.80039 93.3605 5.80039 93.3605 7.20039V11.8004H91.9336V3.55595H93.3605V4.73372C93.8497 3.86706 94.7671 3.40039 95.8882 3.40039C97.6821 3.40039 98.7624 4.60039 98.7624 6.82261Z" fill="black"/>
<path d="M100.148 10.7112L101.025 9.73347C101.555 10.3112 102.228 10.689 103.145 10.689C103.94 10.689 104.531 10.289 104.531 9.55569C104.531 8.80014 103.94 8.55569 102.778 8.20014C101.575 7.84458 100.495 7.24458 100.495 5.80014C100.495 4.3557 101.596 3.42236 103.186 3.42236C104.45 3.42236 105.306 3.9557 105.795 4.51125L104.959 5.48903C104.552 5.04458 103.96 4.71125 103.206 4.71125C102.391 4.71125 101.881 5.11125 101.881 5.77792C101.881 6.46681 102.533 6.68903 103.553 7.02236C104.898 7.42236 105.958 7.97792 105.958 9.51125C105.958 10.9779 104.857 12.0001 103.165 12.0001C101.759 11.9557 100.862 11.489 100.148 10.7112Z" fill="black"/>
</g>
<defs>
<clipPath id="clip0">
<rect width="106" height="12" fill="white"/>
</clipPath>
</defs>
</svg>
