<svg width="107" height="18" viewBox="0 0 107 18" fill="none" xmlns="http://www.w3.org/2000/svg">
<path fill-rule="evenodd" clip-rule="evenodd" d="M107 8.08488C107 8.67141 106.926 9.38214 106.815 9.75527C106.334 9.70186 105.853 9.6841 105.279 9.6841C104.779 9.6841 104.28 9.71974 103.78 9.79066V17.3959H101.744V8.51142C102.614 8.2271 104.076 8.01394 105.223 8.01394C105.853 8.01394 106.556 8.03172 107 8.08488ZM93.3422 11.9585H97.9318C97.9318 10.5015 97.1176 9.64859 95.711 9.64859C94.2675 9.64859 93.5088 10.4482 93.3422 11.9585ZM99.8747 13.5933H93.3792C93.6383 15.1748 94.6005 15.9388 96.4141 15.9388C97.5245 15.9388 98.6535 15.7078 99.6712 15.2636C99.5972 15.779 99.4862 16.4541 99.3566 17.0403C98.4313 17.4491 97.4506 17.609 96.3586 17.609C92.9536 17.609 91.3066 15.7966 91.3066 12.7582C91.3066 10.1106 92.5836 8.01394 95.822 8.01394C98.7274 8.01394 99.9858 9.84394 99.9858 12.083C99.9858 12.6339 99.9488 13.0781 99.8747 13.5933ZM87.6235 15.3345V9.86184C87.0869 9.75526 86.5316 9.6841 85.9949 9.6841C83.9777 9.6841 83.0155 10.8926 83.0155 12.9182C83.0155 14.7305 83.7744 16.01 85.5879 16.01C86.4022 16.01 87.0684 15.7433 87.6235 15.3345ZM89.6405 4.95758V17.3959H87.7715L87.6606 16.2587C87.1422 17.0939 86.3465 17.609 85.0142 17.609C82.5715 17.609 80.9428 15.9032 80.9428 12.9182C80.9428 9.79069 82.6824 8.01394 86.106 8.01394C86.6426 8.01394 87.1422 8.06724 87.6235 8.15605V5.22412C88.2527 5.01097 88.9743 4.95758 89.6405 4.95758ZM79.3137 11.4255V17.3959H77.2783V11.7632C77.2783 10.3595 76.7971 9.6841 74.7614 9.6841C74.2803 9.6841 73.7065 9.73752 73.1514 9.82633V17.3959H71.1158V8.51142C72.4111 8.20934 73.836 8.01394 74.8169 8.01394C78.222 8.01394 79.3137 9.27543 79.3137 11.4255ZM66.8589 15.3702V9.79066C66.4334 9.71974 65.9705 9.6841 65.3971 9.6841C63.2873 9.6841 62.3065 10.9281 62.3065 12.9182C62.3065 14.7305 63.0654 16.01 64.8788 16.01C65.6744 16.01 66.3224 15.7612 66.8589 15.3702ZM68.8946 8.51142V17.3959H67.0255L66.9146 16.3298C66.3963 17.1116 65.6005 17.609 64.3052 17.609C61.8624 17.609 60.234 15.9032 60.234 12.9182C60.234 9.79069 61.9734 8.01394 65.3971 8.01394C66.7294 8.01394 67.8214 8.15605 68.8946 8.51142ZM57.9757 15.9388C58.5678 15.9388 59.1231 15.8321 59.5672 15.6724C59.5117 16.2053 59.4376 16.8095 59.3266 17.3247C58.7714 17.5379 58.1793 17.609 57.6055 17.609C55.6255 17.609 54.367 16.7384 54.367 14.5706V5.24189C54.9963 5.04651 55.7735 4.95758 56.4028 4.95758V8.3159H59.6227C59.5857 8.92007 59.5302 9.47095 59.4376 9.98618H56.4028V14.3397C56.4028 15.4946 56.9949 15.9388 57.9757 15.9388ZM52.3308 11.4255V17.3959H50.2953V11.7632C50.2953 10.3595 49.814 9.6841 47.7785 9.6841C47.2972 9.6841 46.7236 9.73752 46.1684 9.82633V17.3959H44.1329V8.51142C45.4282 8.20934 46.8531 8.01394 47.834 8.01394C51.2391 8.01394 52.3308 9.27543 52.3308 11.4255ZM39.876 15.3702V9.79066C39.4504 9.71974 38.9877 9.6841 38.414 9.6841C36.3043 9.6841 35.3236 10.9281 35.3236 12.9182C35.3236 14.7305 36.0824 16.01 37.8959 16.01C38.6916 16.01 39.3394 15.7612 39.876 15.3702ZM41.9116 8.51142V17.3959H40.0426L39.9316 16.3298C39.4134 17.1116 38.6175 17.609 37.3222 17.609C34.8794 17.609 33.2509 15.9032 33.2509 12.9182C33.2509 9.79069 34.9904 8.01394 38.414 8.01394C39.7465 8.01394 40.8383 8.15605 41.9116 8.51142ZM23.4239 17.005C23.4609 16.2764 23.5719 15.7789 23.7754 15.2103C24.8117 15.6724 26.1442 15.9032 27.162 15.9032C28.8831 15.9032 29.8454 15.3702 29.8454 14.3218C29.8454 13.2912 29.1422 12.8114 27.4026 12.083L26.4588 11.6921C24.7192 10.9635 23.5349 10.0217 23.5349 8.13828C23.5349 6.11275 24.997 4.81546 27.9948 4.81546C29.1977 4.81546 30.3265 4.97547 31.3814 5.33084C31.3259 6.04158 31.1964 6.59245 31.0112 7.10768C30.0119 6.75231 28.8276 6.59246 27.9762 6.59246C26.3663 6.59246 25.6261 7.19663 25.6261 8.13828C25.6261 9.0623 26.3478 9.59528 27.6431 10.1285L28.6426 10.5371C30.9928 11.4966 31.9735 12.5095 31.9735 14.233C31.9735 16.2764 30.3635 17.6801 27.2175 17.6801C25.7 17.6801 24.4602 17.467 23.4239 17.005ZM13.554 6.37101L10.469 1.24047C10.2338 0.8492 10.0712 0.429948 9.98096 0L9.85213 0.21439C9.08855 1.48433 9.08854 3.04871 9.85199 4.31865L12.3201 8.42322C13.0836 9.69303 13.0836 11.2577 12.3201 12.5276L12.1911 12.742C12.1009 12.312 11.9383 11.8928 11.7031 11.5015L8.00104 5.34481C7.7658 4.95354 7.60337 4.53428 7.51298 4.10434L7.38414 4.31876C6.62319 5.58442 6.62083 7.1426 7.37666 8.41027L9.85213 12.5276C10.6157 13.7974 10.6157 15.362 9.85213 16.6319L9.72316 16.8463C9.63289 16.4164 9.47034 15.9971 9.2351 15.606L6.15022 10.4753C5.73642 9.78728 5.54735 9.01267 5.58199 8.24524C2.27945 9.07377 0 10.8328 0 12.8696C0 15.703 4.41091 18 9.85213 18C15.2932 18 19.7041 15.703 19.7041 12.8696C19.7041 10.8327 17.4249 9.07313 14.1221 8.24473C14.0929 7.59609 13.9038 6.95263 13.554 6.37101Z" fill="#EC0000"/>
</svg>
