<svg width="11" height="11" viewBox="0 0 11 11" fill="none" xmlns="http://www.w3.org/2000/svg">
<path d="M8.0155 7.3085L10.157 9.4495L9.4495 10.157L7.3085 8.0155C6.51187 8.65411 5.521 9.00145 4.5 9C2.016 9 0 6.984 0 4.5C0 2.016 2.016 0 4.5 0C6.984 0 9 2.016 9 4.5C9.00145 5.521 8.65411 6.51187 8.0155 7.3085ZM7.0125 6.9375C7.64706 6.28494 8.00143 5.41021 8 4.5C8 2.566 6.4335 1 4.5 1C2.566 1 1 2.566 1 4.5C1 6.4335 2.566 8 4.5 8C5.41021 8.00143 6.28494 7.64706 6.9375 7.0125L7.0125 6.9375Z" fill="#253759"/>
</svg>
