<svg width="470" height="348" viewBox="0 0 470 348" fill="none" xmlns="http://www.w3.org/2000/svg">
<g clip-path="url(#clip0)">
<path d="M194.272 49.9935C203.435 46.544 213.243 45.1447 223.005 45.894L318.803 53.2468C324.956 53.7248 329.963 58.3942 330.834 64.5042L349.398 194.614C353.127 220.748 343.522 247.03 323.81 264.624L262.978 318.955C254.558 326.475 242.446 328.203 232.259 323.338L158.66 288.187C134.8 276.796 118.243 254.26 114.516 228.14L95.9505 98.0169C95.0787 91.9068 98.5799 86.0235 104.354 83.8438L194.272 49.9935Z" fill="#3394EE"/>
<g filter="url(#filter0_d)">
<path d="M270.487 16.0023C280.045 13.8817 289.952 13.8817 299.51 16.0023L393.309 36.8126C399.333 38.1549 403.63 43.4846 403.63 49.6566V181.084C403.63 207.482 390.409 232.144 368.409 246.778L300.513 291.972C291.116 298.227 278.881 298.227 269.483 291.972L201.587 246.778C179.575 232.131 166.367 207.482 166.367 181.097V49.6566C166.367 43.4846 170.664 38.1549 176.688 36.8126L270.487 16.0023ZM284.998 39.7472L192.73 60.2108V181.084C192.73 198.679 201.535 215.115 216.205 224.88L284.998 270.676L353.791 224.88C368.462 215.115 377.267 198.692 377.267 181.097V60.2108L284.998 39.7604V39.7472ZM334.377 117.111C339.519 111.978 347.845 111.977 352.988 117.108C358.146 122.254 358.148 130.61 352.991 135.757L286.279 202.362C281.952 206.682 274.943 206.682 270.616 202.362L231.854 163.662C226.701 158.518 226.701 150.168 231.854 145.024C236.994 139.891 245.321 139.891 250.462 145.024L278.434 172.951L334.377 117.111Z" fill="#47A5FC"/>
</g>
</g>
<defs>
<filter id="filter0_d" x="91.8242" y="-11.377" width="386.35" height="385.836" filterUnits="userSpaceOnUse" color-interpolation-filters="sRGB">
<feFlood flood-opacity="0" result="BackgroundImageFix"/>
<feColorMatrix in="SourceAlpha" type="matrix" values="0 0 0 0 0 0 0 0 0 0 0 0 0 0 0 0 0 0 127 0"/>
<feOffset dy="24"/>
<feGaussianBlur stdDeviation="17.5"/>
<feColorMatrix type="matrix" values="0 0 0 0 0.145833 0 0 0 0 0.21525 0 0 0 0 0.35 0 0 0 0.17 0"/>
<feBlend mode="normal" in2="BackgroundImageFix" result="effect1_dropShadow"/>
<feBlend mode="normal" in="SourceGraphic" in2="effect1_dropShadow" result="shape"/>
</filter>
<clipPath id="clip0">
<rect width="470" height="348" fill="white"/>
</clipPath>
</defs>
</svg>
