<svg width="12" height="10" viewBox="0 0 12 10" fill="none" xmlns="http://www.w3.org/2000/svg">
<path d="M5.29922 0.656773C5.5198 -0.0220875 6.4802 -0.0220864 6.70078 0.656774L7.40617 2.82774C7.50481 3.13133 7.78773 3.33688 8.10695 3.33688H10.3896C11.1034 3.33688 11.4002 4.25028 10.8227 4.66984L8.976 6.01157C8.71775 6.1992 8.60969 6.53179 8.70833 6.83538L9.41372 9.00635C9.63429 9.68521 8.85731 10.2497 8.27983 9.83016L6.4331 8.48843C6.17485 8.3008 5.82515 8.3008 5.5669 8.48843L3.72016 9.83016C3.14269 10.2497 2.36571 9.68521 2.58628 9.00634L3.29167 6.83538C3.39031 6.53179 3.28225 6.1992 3.024 6.01157L1.17726 4.66984C0.599792 4.25028 0.896575 3.33688 1.61037 3.33688H3.89306C4.21227 3.33688 4.49519 3.13133 4.59383 2.82774L5.29922 0.656773Z" fill="#2F80ED"/>
</svg>
