<svg width="12" height="11" viewBox="0 0 12 11" fill="none" xmlns="http://www.w3.org/2000/svg">
<path d="M5.19072 0.556259C5.40544 -0.134614 6.38329 -0.134614 6.59801 0.55626L7.28121 2.75451C7.37699 3.06268 7.66214 3.27267 7.98485 3.27267H10.263C10.9689 3.27267 11.2708 4.16934 10.7087 4.59628L8.8101 6.0384C8.56325 6.2259 8.46015 6.54784 8.55215 6.84386L9.26392 9.13405C9.47671 9.81872 8.68554 10.3732 8.11459 9.93951L6.34006 8.59163C6.07662 8.39153 5.71211 8.39153 5.44868 8.59163L3.67414 9.93951C3.1032 10.3732 2.31202 9.81872 2.52481 9.13405L3.23658 6.84386C3.32858 6.54784 3.22548 6.2259 2.97863 6.0384L1.08002 4.59628C0.517937 4.16934 0.819867 3.27267 1.52571 3.27267H3.80388C4.12659 3.27267 4.41175 3.06268 4.50752 2.75451L5.19072 0.556259Z" fill="#FBFBFB"/>
</svg>
